PathFileType	4	(X/Y/Z)	P:\Projects\LMB_grand_challenge_database\project_only\opensim\experimental_data\SixthCompetition/DM_ngait_og7_new.trc
DataRate	CameraRate	NumFrames	NumMarkers	Units	OrigDataRate	OrigDataStartFrame	OrigNumFrames
120	120	7	68	mm	120	235	314
Frame#	Time	Sternum			Neck			R_Shoulder			L_Shoulder			Xiphoid			Thoracic			R_Asis			L_Asis			R_Psis			L_Psis			Lumbar			R_Elbow			R_ElbowMedial			R_ShoulderAnterior			R_ShoulderPosterior			R_Wrist			R_Radius			R_Ulna			L_Elbow			L_ElbowMedial			L_ShoulderAnterior			L_ShoulderPosterior			L_Wrist			L_Ulna			L_Radius			L_Thigh_Superior			L_Thigh_Inferior			L_Thigh_Lateral			L_Knee_Lateral			L_Knee_Medial			L_Patella			L_Shank_Superior			L_Shank_Inferior			L_Shank_Lateral			L_Ankle_Lateral			L_Ankle_Medial			R_Thigh_Superior			R_Thigh_Inferior			R_Thigh_Lateral			R_Knee_Lateral			R_Knee_Medial			R_Patella			R_Shank_Superior			R_Shank_Inferior			R_Shank_Lateral			R_Ankle_Lateral			RankleMedial			R_Heel			R_Toe			R_Midfoot_Medial			R_Midfoot_Lateral			R_Hindfoot			R_Midfoot_Superior			R_ToeMedial			R_ToeLateral			L_Heel			L_Toe			L_Midfoot_Medial			L_Midfoot_Lateral			L_Hindfoot			L_Midfoot_Superior			L_ToeMedial			L_ToeLateral			Oglobal			Sacral			Xglobal			Yglobal			Zglobal			
		X1	Y1	Z1	X2	Y2	Z2	X3	Y3	Z3	X4	Y4	Z4	X5	Y5	Z5	X6	Y6	Z6	X7	Y7	Z7	X8	Y8	Z8	X9	Y9	Z9	X10	Y10	Z10	X11	Y11	Z11	X12	Y12	Z12	X13	Y13	Z13	X14	Y14	Z14	X15	Y15	Z15	X16	Y16	Z16	X17	Y17	Z17	X18	Y18	Z18	X19	Y19	Z19	X20	Y20	Z20	X21	Y21	Z21	X22	Y22	Z22	X23	Y23	Z23	X24	Y24	Z24	X25	Y25	Z25	X26	Y26	Z26	X27	Y27	Z27	X28	Y28	Z28	X29	Y29	Z29	X30	Y30	Z30	X31	Y31	Z31	X32	Y32	Z32	X33	Y33	Z33	X34	Y34	Z34	X35	Y35	Z35	X36	Y36	Z36	X37	Y37	Z37	X38	Y38	Z38	X39	Y39	Z39	X40	Y40	Z40	X41	Y41	Z41	X42	Y42	Z42	X43	Y43	Z43	X44	Y44	Z44	X45	Y45	Z45	X46	Y46	Z46	X47	Y47	Z47	X48	Y48	Z48	X49	Y49	Z49	X50	Y50	Z50	X51	Y51	Z51	X52	Y52	Z52	X53	Y53	Z53	X54	Y54	Z54	X55	Y55	Z55	X56	Y56	Z56	X57	Y57	Z57	X58	Y58	Z58	X59	Y59	Z59	X60	Y60	Z60	X61	Y61	Z61	X62	Y62	Z62	X63	Y63	Z63	X64	Y64	Z64	X65	Y65	Z65	X66	Y66	Z66	X67	Y67	Z67	X68	Y68	Z68	

236	2.716667	1014.18	1469.8	202.637	1166.72	1382.65	181.651	1122.3	1406.64	359.81	1059.89	1430.43	19.486	1182	1217.01	179.749	919.063	1280.79	201.051	1109.3	995.592	322.244	1098.3	986.3440000000001	44.9195	903.35	1033.78	221.789	900.091	1031.56	143.069	903.616	1082.46	182.608	1087.38	1099.33	474.08	-0	0	0	-0	0	0	-0	0	0	1181.87	834.385	454.781	1177.21	846.314	410.645	1137.4	836.775	469.819	1024.5	1094.76	-80.0449	-0	0	0	-0	0	0	-0	0	0	1095.22	835.13	-83.15940000000001	1050.48	845.554	-98.3008	1093.17	849.557	-36.3361	1073.38	823.67	9.058960000000001	1176.56	621.372	24.7599	1193.92	720.572	53.5242	-0	0	0	-0	0	0	1233.18	522.029	70.4684	1127.48	482.812	21.8339	949.9450000000001	281.56	38.4678	-0	0	0	-0	0	0	-0	0	0	1035.74	805.677	339.374	1040.9	592.764	297.574	1122.53	657.61	252.249	-0	0	0	-0	0	0	-0	0	0	994.059	399.342	308.041	970.87	192.991	289.32	1044.55	312.988	218.502	-0	0	0	-0	0	0	871.768	64.64919999999999	236.139	1172.07	53.0806	234.111	1092.58	30.9819	182.057	1083.26	29.5282	298.948	971.941	29.3802	287.738	1035.45	119.661	236.919	1136.72	40.6532	190.663	1131.29	40.2128	282.298	828.3200000000001	221.498	100.37	1068.96	48.9576	78.348	998.438	76.5245	135.158	976.965	80.3412	22.773	885.413	136.071	39.2561	995.828	176.845	79.1549	1030.06	53.9718	123.533	1023.64	54.0075	29.1367	-0	0	0	901.72	1032.67	182.429	-200	0	0	-0	0	200	-0	200	0	
237	2.725	1022.61	1469.82	202.269	1175.11	1382.69	180.736	1131.5	1406.95	359.049	1067.15	1430.13	18.8536	1190.23	1216.89	179.029	927.575	1280.75	201.302	1117.65	995.076	322.091	1106	986.554	44.4994	911.5700000000001	1033.91	222.124	908.148	1031.73	143.395	911.773	1082.61	183.003	1098.92	1099.89	474.459	-0	0	0	-0	0	0	-0	0	0	1196.76	836.131	454.097	1191.38	848.307	409.464	1152.24	838.167	469.415	1025.84	1094.94	-80.0878	-0	0	0	-0	0	0	-0	0	0	1092.19	834.328	-85.88290000000001	1046.95	845.622	-99.6752	1092.02	848.703	-39.2306	1081.58	824.454	8.048170000000001	1188.34	623.8049999999999	24.814	1204.31	723.097	53.5933	-0	0	0	-0	0	0	1246.68	525.693	70.4011	1142.46	483.775	21.0097	973.498	274.697	35.5967	-0	0	0	-0	0	0	-0	0	0	1043.43	805.277	339.224	1045.36	592.317	297.569	1127.67	656.683	251.961	-0	0	0	-0	0	0	-0	0	0	996.811	399.35	308.02	971.809	193.352	289.475	1046.14	312.511	218.287	-0	0	0	-0	0	0	871.216	64.7235	235.774	1172.05	52.9919	234.132	1092.03	30.3559	182.135	1082.52	29.2387	299.014	972	29.4565	287.739	1035.67	119.539	236.672	1136.82	40.5627	190.743	1131.34	40.1761	282.34	852.353	210.65	97.0934	1100.57	48.6493	76.7761	1028.17	72.98609999999999	133.191	1007.47	75.9824	20.6366	913.7380000000001	127.712	36.3718	1021.95	173.112	77.19499999999999	1060.93	51.3598	121.415	1055.4	51.5392	27.3018	-0	0	0	909.859	1032.82	182.759	-200	0	0	-0	0	200	-0	200	0	
238	2.733333	1031.14	1469.65	201.962	1183.5	1382.53	179.99	1140.92	1407.21	358.565	1074.48	1429.52	18.2521	1198.6	1216.65	178.2	936.057	1280.71	201.726	1125.99	994.5359999999999	321.886	1113.58	986.461	44.1272	919.771	1034.01	222.451	916.124	1031.84	143.713	919.933	1082.72	183.381	1110.44	1100.09	474.409	-0	0	0	-0	0	0	-0	0	0	1211.39	837.7619999999999	453.086	1205.93	850.135	408.888	1167.11	839.111	468.644	1027.49	1094.97	-79.9374	-0	0	0	-0	0	0	-0	0	0	1089.19	833.647	-88.468	1043.9	845.337	-100.509	1090.58	847.663	-42.5924	1090.34	825.274	7.27885	1200.08	626.494	25.102	1214.67	725.562	53.9202	-0	0	0	-0	0	0	1259.36	529.05	70.2731	1157.29	484.439	20.2436	996.332	268.28	33.0967	-0	0	0	-0	0	0	-0	0	0	1050.35	805.096	339.436	1049.99	592.1319999999999	297.581	1132.75	655.567	251.529	-0	0	0	-0	0	0	-0	0	0	999.569	399.346	307.857	972.888	193.515	289.565	1047.92	312.116	218.209	-0	0	0	-0	0	0	871.232	65.04559999999999	235.793	1172.1	52.8599	234.124	1091.98	30.3129	182.112	1082.46	29.0703	298.99	972.0359999999999	29.4787	287.766	1035.86	119.561	236.759	1137	40.7775	190.828	1131.44	40.1431	282.355	876.674	200.356	94.09910000000001	1132.6	48.387	74.5391	1057.35	69.1679	130.333	1037.17	72.1297	17.6823	942.455	120.095	33.1585	1048.26	169.251	74.88039999999999	1092.32	49.433	118.886	1087.25	49.4616	24.6619	-0	0	0	917.947	1032.93	183.082	-200	0	0	-0	0	200	-0	200	0	
239	2.741667	1039.66	1469.34	201.566	1191.85	1382.26	179.04	1149.73	1407.37	357.436	1081.92	1429.31	17.5949	1206.92	1216.32	177.384	944.532	1280.59	201.932	1134.65	994.066	321.005	1120.97	986.0309999999999	43.5072	928.048	1034.03	222.585	924.025	1031.89	143.889	928.183	1082.74	183.547	1122.05	1100.39	474.613	-0	0	0	-0	0	0	-0	0	0	1226.32	839.327	452.279	1220.08	851.649	407.62	1181.75	840.22	467.844	1029.29	1095.13	-79.8	-0	0	0	-0	0	0	-0	0	0	1086.34	832.9690000000001	-90.8215	1040.91	845.122	-101.352	1089.63	846.804	-45.1936	1099.24	825.975	6.63084	1211.19	628.347	25.2691	1224.62	727.49	54.3632	-0	0	0	-0	0	0	1271.84	532.5069999999999	70.10769999999999	1171.79	484.799	19.3196	1019.29	262.2	30.8706	-0	0	0	-0	0	0	-0	0	0	1056.84	804.979	339.78	1054.6	591.816	297.579	1138.07	654.568	251.247	-0	0	0	-0	0	0	-0	0	0	1002.35	399.318	307.872	973.861	193.627	289.555	1050.09	311.788	218.19	-0	0	0	-0	0	0	871.546	65.5732	236.237	1172.12	52.7306	234.109	1091.87	29.3605	181.797	1082.81	28.5511	298.715	972.042	29.5162	287.899	1036.18	119.012	236.375	1137.07	40.7119	190.83	1131.48	40.0148	282.488	901.3579999999999	189.6	91.25790000000001	1164.43	48.4748	71.51220000000001	1087.18	65.9873	128.114	1067.07	67.8223	15.426	972.9450000000001	110.534	29.5465	1075.01	165.341	72.2747	1124.16	47.151	115.698	1119.25	47.6892	21.6495	-0	0	0	926.0359999999999	1032.96	183.237	-200	0	0	-0	0	200	-0	200	0	
240	2.75	1048.17	1468.99	200.988	1200.29	1381.72	177.969	1158.84	1407.23	356.566	1089.31	1428.79	16.8762	1215.26	1215.76	176.575	952.929	1280.43	202.108	1142.79	994.057	320.901	1128.48	985.1319999999999	42.9083	936.119	1033.95	222.604	932.069	1031.77	143.959	936.1849999999999	1082.67	183.313	1133.52	1100.45	474.289	-0	0	0	-0	0	0	-0	0	0	1240.82	840.7430000000001	451.014	1234.26	853.4930000000001	406.624	1196.62	841.0599999999999	466.661	1031.35	1095.2	-79.69880000000001	-0	0	0	-0	0	0	-0	0	0	1083.45	832.128	-93.0468	1038.1	844.907	-102.061	1088.3	845.699	-47.5002	1108	826.379	6.07352	1221.97	630.091	25.6856	1234.35	729.299	54.9203	-0	0	0	-0	0	0	1284.39	536.275	68.3562	1185.35	484.634	19.2034	1042.51	255.826	28.7238	-0	0	0	-0	0	0	-0	0	0	1063.18	804.943	340.055	1059.99	590.985	297.839	1144.03	653.859	251.134	-0	0	0	-0	0	0	-0	0	0	1004.98	399.229	307.757	974.7910000000001	193.777	289.577	1052.17	311.604	218.228	-0	0	0	-0	0	0	871.678	65.8986	236.272	1172.11	52.6699	234.472	1091.88	29.3392	181.599	1082.91	28.3208	298.521	972.092	29.5171	287.792	1036.33	118.968	236.392	1136.81	40.0232	190.716	1131.56	39.9428	282.377	927.851	177.908	88.8233	1196.24	48.5866	67.7778	1118.73	61.3346	122.628	1098.59	65.31959999999999	10.002	1001.23	104.255	25.703	1101.96	161.576	69.4834	1156.19	45.8215	111.986	1151.18	46.5949	17.7527	-0	0	0	934.0940000000001	1032.86	183.281	-200	0	0	-0	0	200	-0	200	0	
241	2.758333	1056.8	1468.5	200.458	1208.71	1381.24	176.77	1167.83	1407.07	355.71	1096.88	1427.99	16.1692	1223.47	1215.11	175.648	961.441	1280.13	202.107	1151.14	993.775	320.423	1136.12	984.15	42.4429	944.313	1033.73	222.486	940.154	1031.59	143.973	944.383	1082.47	183.088	1145.14	1100.38	474.242	-0	0	0	-0	0	0	-0	0	0	1255.54	842.244	449.763	1248.31	854.859	405.254	1210.91	841.9160000000001	465.639	1033.6	1095.22	-79.6606	-0	0	0	-0	0	0	-0	0	0	1081	831.569	-95.15860000000001	1035.4	845.136	-102.806	1087.59	845.042	-49.7521	1116.57	826.646	5.25976	1232.34	631.542	25.9831	1243.89	730.782	55.4277	-0	0	0	-0	0	0	1295.06	538.373	70.212	1198.72	485.008	18.6838	1065.74	249.716	26.2256	-0	0	0	-0	0	0	-0	0	0	1069.39	804.877	340.357	1064.84	590.678	297.599	1151.87	653.361	250.465	-0	0	0	-0	0	0	-0	0	0	1007.88	399.173	307.57	975.861	194.005	289.582	1052.89	311.106	218.126	-0	0	0	-0	0	0	871.776	66.1651	236.272	1171.98	52.1671	234.169	1091.97	29.246	181.777	1082.89	28.1862	298.691	972.085	29.4964	287.929	1036.49	118.935	236.565	1136.79	39.7931	190.674	1131.61	39.8078	282.348	954.6369999999999	166.454	86.169	1228.58	49.4558	63.4515	1150.54	57.5928	116.78	1130.14	63.7991	4.3023	1029.75	98.7097	21.8428	1129.31	158.423	66.4289	1188.78	44.225	107.798	1183.57	45.6622	13.6763	-0	0	0	942.2329999999999	1032.66	183.229	-200	0	0	-0	0	200	-0	200	0	
242	2.766667	1065.41	1467.92	199.858	1217.2	1380.48	175.792	1177.05	1406.71	354.798	1104.73	1427.1	15.3845	1231.81	1214.28	174.659	969.946	1279.78	201.98	1159.3	993.042	320.013	1143.6	983.66	41.6971	952.386	1033.57	222.488	948.048	1031.34	143.917	952.402	1082.27	183.042	1156.64	1100.2	473.844	-0	0	0	-0	0	0	-0	0	0	1269.87	843.516	448.205	1262.41	856.3869999999999	404.029	1225.82	842.848	464.625	1036.3	1095.04	-79.30370000000001	-0	0	0	-0	0	0	-0	0	0	1078.51	830.896	-96.95	1033.11	845.129	-103.382	1086.8	844.212	-52.0234	1124.94	826.527	4.5449	1242.36	632.615	26.4533	1253.18	731.828	56.0813	-0	0	0	-0	0	0	1305.96	540.828	70.40940000000001	1211.62	484.998	18.0487	1089.23	243.748	23.9737	-0	0	0	-0	0	0	-0	0	0	1075.41	804.8819999999999	340.493	1069.2	590.389	297.416	1155.28	651.544	250.501	-0	0	0	-0	0	0	-0	0	0	1010.66	399.134	307.491	976.802	194.165	289.53	1055.12	310.391	217.95	-0	0	0	-0	0	0	871.829	66.5459	236.246	1171.95	51.9405	234.185	1091.92	29.2191	181.627	1082.86	27.9319	298.541	972.114	29.5571	287.795	1036.71	118.936	236.617	1136.98	39.9524	190.631	1131.61	39.6632	282.246	982.744	154.339	83.68980000000001	1260.48	50.2025	58.7328	1184.51	57.6152	116.883	1163.21	58.4959	4.40296	1060.02	87.7238	20.9068	1156.8	155.177	63.0788	1221.79	43.6313	103.062	1215.83	45.6877	9.108090000000001	-0	0	0	950.217	1032.45	183.202	-200	0	0	-0	0	200	-0	200	0	
